<svg width="16" height="16" viewBox="0 0 16 16" fill="none" xmlns="http://www.w3.org/2000/svg">
<path d="M14.2267 2.7642C14.1126 2.70197 13.9822 2.66641 13.8519 2.66641C13.6808 2.66641 13.5178 2.71975 13.3793 2.83533L8.96297 6.27584L7.67557 7.28043C7.46371 7.44934 7.33334 7.71605 7.33334 8.00054C7.33334 8.28502 7.46371 8.56062 7.67557 8.72064L8.96297 9.72524L13.3793 13.1657C13.5007 13.2612 13.6439 13.3183 13.7931 13.3306C13.9423 13.3429 14.0917 13.31 14.2249 13.2355C14.3581 13.161 14.4698 13.0478 14.5478 12.9084C14.6257 12.7691 14.6669 12.6089 14.6667 12.4456V3.55543C14.6667 3.2265 14.4956 2.91534 14.2267 2.7642Z" fill="#FF5F5F"/>
<path d="M8.22668 13.2359C8.49557 13.0848 8.66668 12.7826 8.66668 12.4448V10.818L6.90668 9.44904C6.48297 9.11124 6.22223 8.57788 6.22223 8.00006C6.22223 7.42225 6.47483 6.88889 6.90668 6.55109L8.66668 5.18212V3.55535C8.66668 3.22645 8.49557 2.91532 8.22668 2.7642C8.1126 2.70197 7.98223 2.66641 7.85186 2.66641C7.68075 2.66641 7.51779 2.71975 7.37927 2.83531L1.67557 7.28002C1.46371 7.44892 1.33334 7.7156 1.33334 8.00006C1.33334 8.28453 1.46371 8.5601 1.67557 8.72011L7.37927 13.1648C7.50084 13.2606 7.64428 13.3179 7.7938 13.3305C7.94332 13.343 8.09311 13.3103 8.22668 13.2359Z" fill="#5FFF97"/>
</svg>
