<svg width="16" height="16" viewBox="0 0 16 16" fill="none" xmlns="http://www.w3.org/2000/svg">
<path d="M1.872 4.858C2.6229 3.96324 3.56063 3.24377 4.61931 2.75015C5.67798 2.25652 6.83191 2.00072 8 2.00072C9.1681 2.00072 10.322 2.25652 11.3807 2.75015C12.4394 3.24377 13.3771 3.96324 14.128 4.858" stroke="#E0E0E0" stroke-width="2" stroke-linecap="round"/>
<path d="M5.26549 5.83333L6.17441 5.375M7.08334 4.91667L6.17441 5.375M6.17441 5.375L7.08334 7.28111" stroke="#5FFF97" stroke-linecap="round"/>
<path d="M10.7345 5.83333L9.81785 5.375M9.81785 5.375L8.91666 4.91667M9.81785 5.375L8.91666 7.28111" stroke="#FF5F5F" stroke-linecap="round"/>
<path d="M8 13.8828C6.97436 13.8828 5.99072 13.4754 5.26549 12.7501C4.54025 12.0249 4.13281 11.0413 4.13281 10.0156C4.13281 8.98998 4.54025 8.00635 5.26549 7.28111C5.99072 6.55587 6.97436 6.14844 8 6.14844C9.02564 6.14844 10.0093 6.55587 10.7345 7.28111C11.4598 8.00635 11.8672 8.98998 11.8672 10.0156C11.8672 11.0413 11.4598 12.0249 10.7345 12.7501C10.0093 13.4754 9.02564 13.8828 8 13.8828ZM8 13.8828V13.0234M11.6953 10.0156H11.0078M4.21875 10.0156H4.90625M8 10.0156L9.375 8.64063" stroke="#E0E0E0" stroke-linecap="round"/>
<path d="M8 10.7031C8.3797 10.7031 8.6875 10.3953 8.6875 10.0156C8.6875 9.63593 8.3797 9.32812 8 9.32812C7.6203 9.32812 7.3125 9.63593 7.3125 10.0156C7.3125 10.3953 7.6203 10.7031 8 10.7031Z" fill="#E0E0E0"/>
</svg>
