<svg width="64" height="64" viewBox="0 0 64 64" fill="none" xmlns="http://www.w3.org/2000/svg">
<path fill-rule="evenodd" clip-rule="evenodd" d="M25.1169 4.98135C24.4155 5.15287 20.4449 6.27612 19.3569 7.02935C18.5249 7.60535 18.3329 9.39735 18.2049 11.6373C17.1169 12.3413 14.5569 14.0053 12.3169 16.2453C11.4209 15.9893 10.5889 14.7093 9.11691 14.5813C7.90091 15.4133 5.14891 19.8933 4.63691 21.7493C4.63691 22.5813 4.89291 23.2213 5.91691 24.5653C5.89259 25.2412 4.6018 28.2773 4.25291 32.2453C4.14667 33.4537 4.34635 38.1308 4.63691 39.1573C5.10667 40.8149 6.62091 46.3253 9.11691 49.3973C10.0616 50.7029 15.0689 55.9893 17.6929 57.2053C18.9806 58.0117 24.2849 60.5333 27.2929 60.7893C28.8072 61.0415 34.1409 61.4873 37.6609 60.5333C40.1569 59.8569 44.8929 58.6133 49.0529 54.9013C50.3227 53.9081 55.0049 49.4613 56.4769 45.8133C57.1182 44.6549 59.2289 39.4773 59.0369 36.8533C58.8873 34.8083 59.4209 29.3653 57.6289 24.9493C57.6212 24.4949 58.8449 23.2213 58.8449 22.0693C58.8449 20.6613 56.0289 14.8373 54.3009 14.7733C53.3409 14.7733 52.4449 15.7974 51.2289 16.2453C50.2689 15.2854 46.4929 12.1493 45.4689 11.8933C45.3102 11.6847 45.2129 8.50135 44.7649 7.47735C43.9969 6.96535 39.7089 4.78935 37.6609 4.98135C36.5089 5.17335 35.5489 7.86135 34.9729 8.94935C33.8209 8.94935 28.9889 9.02359 28.8289 8.94935C28.7112 8.89559 27.1329 5.55735 26.6529 5.23735C26.2689 4.98135 26.2689 4.69966 25.1169 4.98135Z" fill="#478CBF"/>
<path fill-rule="evenodd" clip-rule="evenodd" d="M4.54401 39.5776C4.60801 40.1536 4.99201 41.4976 5.12 42.2656C5.696 43.6096 8.64001 45.7856 10.711 46.8096C11.0003 47.1641 11.712 51.3699 13.056 52.1216C16.832 54.2336 22.08 55.5136 24 55.5136C24.448 55.1936 24.484 54.9376 24.64 54.5536C24.822 54.1056 24.8422 50.1811 24.96 50.1376C28.48 50.2656 34.304 50.4576 38.144 50.0736C38.2733 50.1248 37.9765 55.266 38.848 55.3856C42.112 55.8336 46.514 53.8891 47.488 53.4656C48.96 52.8256 50.0875 52.3136 50.56 51.6736C51.5051 50.3936 52.087 47.2512 52.288 47.0016C54.656 45.8496 56.96 43.8016 58.048 42.4576C58.432 41.3056 58.688 40.0896 58.688 39.7056C57.088 41.7536 54.336 43.3536 51.52 44.5056C50.752 45.0816 49.6218 49.6998 49.472 49.8816C48.32 50.9696 46.1542 51.4918 45.632 51.6736C45.047 51.8771 41.1226 52.8921 41.024 52.8256C40.9318 52.7629 40.8282 48.6387 40.768 48.3456C40.704 47.8976 40.576 47.3216 39.872 47.1936C36.416 47.7696 29.504 47.8336 23.04 47.2576C22.656 47.3216 22.336 47.5776 22.336 48.0896C22.3091 48.2291 22.336 51.0976 22.08 52.8256C20.544 52.5696 15.104 51.1616 14.016 50.2656C13.0207 49.4459 12.533 45.0176 11.968 44.7616C7.87201 42.9056 5.88801 41.0496 4.54401 39.5776ZM15.168 24.4403C14.4355 24.2665 13.9784 24.292 13.2403 24.4403C12.3236 24.6245 11.8306 24.9148 11.0797 25.472C10.1395 26.1695 9.76552 26.7751 9.17121 27.7837C8.38293 29.1214 8.13024 30.0174 7.91041 31.5545C7.73865 32.7555 7.72715 33.4613 7.90656 34.6611C8.11366 36.0461 8.3328 36.8543 9.03937 38.0633C9.56203 38.9577 9.88119 39.5029 10.711 40.1229C11.5274 40.7328 12.1023 41.0325 13.1162 41.1354C14.022 41.2272 14.5804 41.1159 15.4163 40.7552C16.3595 40.3482 16.7849 39.8722 17.4566 39.095C18.2667 38.158 18.7469 36.9318 18.9811 36.3136C19.2 35.735 19.5046 34.5697 19.6058 33.4169C19.7898 31.3207 19.1514 29.0304 18.8493 28.0819C18.6739 27.5277 18.0298 26.263 17.0842 25.4797C16.4286 24.9366 15.9963 24.6368 15.168 24.4403ZM48.983 24.32C48.1929 24.3472 47.7349 24.4924 47.0285 24.8473C45.9104 25.4091 45.0983 26.6086 44.7706 27.1206C44.4352 27.6441 43.8783 28.9358 43.6147 30.1888C43.3195 31.5921 43.3084 32.4351 43.4829 33.8585C43.6279 35.0419 44.0013 36.2265 44.247 36.8141C44.4851 37.3849 44.9813 38.5146 45.7792 39.3549C46.4875 40.1008 46.9538 40.5429 47.9245 40.8832C48.6016 41.1205 49.0281 41.1994 49.7434 41.143C50.6922 41.0682 51.2255 40.7895 52.0128 40.2547C52.8036 39.7175 53.1507 39.2584 53.6806 38.4627C54.3259 37.4938 54.5186 36.8317 54.8135 35.7056C55.3791 33.545 55.3772 32.1436 54.7981 29.9865C54.411 28.5446 54.1342 27.6738 53.1878 26.519C52.658 25.8725 52.3305 25.4985 51.6135 25.0688C50.6973 24.5198 50.0505 24.2832 48.983 24.32ZM29.76 29.6576C29.1391 30.2208 28.8 31.5776 28.8 31.5776C28.8 31.5776 28.736 38.1696 28.736 39.7696C28.7667 40.1984 29.1192 40.9819 29.6742 41.527C30.2742 42.1162 30.7753 42.4404 31.616 42.4576C32.4943 42.4755 33.0546 42.1598 33.664 41.527C34.1908 40.9801 34.4538 40.1651 34.496 39.7696C34.6534 38.2784 34.496 31.5776 34.496 31.5776C34.496 31.5776 34.204 30.2231 33.6 29.6576C33.0105 29.1056 32.4876 28.8896 31.68 28.8896C30.8724 28.8896 30.3581 29.115 29.76 29.6576ZM48.9638 27.1168C49.5151 27.035 49.852 27.0958 50.3834 27.264C51.2658 27.5433 52.0461 28.3558 52.2726 28.695C52.6246 29.2211 53.453 30.6899 53.6307 32.1165C53.8396 33.7931 53.6922 34.688 52.992 36.4147C52.5068 37.6112 51.6401 38.2952 50.3719 38.5369C49.4321 38.7161 48.7843 38.5679 47.9667 38.071C47.2379 37.6281 46.7456 36.7885 46.5434 36.4147C46.2912 35.9475 45.7024 34.336 45.6742 33.8278C45.6307 33.0342 45.4374 31.0916 46.1747 29.6025C46.6009 28.7419 46.8694 28.1788 47.6723 27.6518C48.1287 27.3523 48.4238 27.1969 48.9638 27.1168ZM13.4771 27.1667C14.2487 27.1186 14.7448 27.2239 15.401 27.6326C15.979 27.9926 16.4096 28.631 16.5683 28.928C16.8115 29.3798 17.2906 30.4113 17.4451 31.4381C17.5747 32.2992 17.5546 32.806 17.4298 33.6678C17.2211 35.1081 16.9878 36.009 16.0678 37.1366C15.6295 37.674 15.3816 38.0332 14.7571 38.3347C13.9927 38.7038 13.4202 38.7219 12.5926 38.5331C11.2106 38.2178 10.2221 36.5107 9.98529 36.0077C9.71393 35.4291 9.17637 33.4747 9.46177 31.872C9.68158 30.6376 10.3898 29.3273 10.7341 28.9241C11.0835 28.5158 12.2074 27.2458 13.4771 27.1667Z" fill="white"/>
<path d="M50.3834 27.264C49.852 27.0958 49.5151 27.0349 48.9638 27.1168C48.4238 27.1969 48.1287 27.3522 47.6723 27.6518C46.8694 28.1788 46.6009 28.7418 46.1747 29.6025C45.4374 31.0916 45.6307 33.0342 45.6742 33.8278C45.7024 34.336 46.2912 35.9475 46.5434 36.4147C46.7456 36.7884 47.2379 37.6281 47.9667 38.071C48.7843 38.5679 49.432 38.7161 50.3718 38.5369C51.6401 38.2951 52.5068 37.6112 52.992 36.4147C53.6922 34.688 53.8396 33.7931 53.6307 32.1164C53.453 30.6899 52.6246 29.2211 52.2726 28.695C52.0461 28.3558 51.2658 27.5432 50.3834 27.264Z" fill="#414042"/>
<path d="M15.401 27.6326C14.7448 27.2239 14.2486 27.1186 13.4771 27.1667C12.2073 27.2458 11.0835 28.5158 10.7341 28.9241C10.3898 29.3273 9.68157 30.6375 9.46175 31.8719C9.17635 33.4747 9.71391 35.4291 9.98527 36.0076C10.2221 36.5107 11.2106 38.2178 12.5926 38.5331C13.4202 38.7219 13.9927 38.7038 14.7571 38.3347C15.3816 38.0331 15.6295 37.6739 16.0678 37.1366C16.9878 36.0089 17.2211 35.1081 17.4298 33.6678C17.5546 32.806 17.5747 32.2991 17.4451 31.438C17.2906 30.4113 16.8115 29.3798 16.5683 28.9279C16.4096 28.631 15.979 27.9926 15.401 27.6326Z" fill="#414042"/>
</svg>
